<?xml version="1.0" encoding="UTF-8"?>
<svg xmlns="http://www.w3.org/2000/svg" width="590" height="146" viewBox="0 0 295 73" fill="#1e2129"><rect width="295" height="73" fill="#ffffff" /><defs><path id="g-110" d="M547 302V282L521 133Q512 84 442 65Q373 46 298 46Q267 46 239.0 49.5Q211 53 186 60Q136 74 124 96Q107 126 99 207Q95 246 93.0 292.0Q91 338 91 391Q91 502 97 617Q103 733 109 788Q105 787 102.0 786.5Q99 786 95 786Q58 786 36 844Q25 873 17.0 905.0Q9 937 4 974Q-1 1011 -3.5 1041.0Q-6 1071 -6 1094Q-6 1134 0 1162L26 1312Q35 1361 54 1367Q94 1383 169 1397Q206 1404 242.0 1407.0Q278 1410 313 1410Q336 1410 357.5 1408.5Q379 1407 398 1403Q417 1399 434.0 1393.5Q451 1388 465 1380Q493 1364 509 1337Q528 1353 550.5 1364.5Q573 1376 599 1384Q652 1399 706 1399Q811 1399 890 1342Q970 1284 1004 1180Q1053 1030 1053 776Q1053 681 1045.5 561.5Q1038 442 1022 298L996 145Q989 104 919 78Q847 52 759 52Q683 52 632 73Q581 94 581 138Q581 179 590 248Q598 311 602 374Q604 406 605.0 448.0Q606 490 606 542Q606 706 574 782Q558 818 541 818Q534 818 529 812L528 704Q528 564 532.5 463.5Q537 363 547 302ZM507 847Q507 919 525 955Q542 990 566 990Q610 990 632 908Q643 867 648.5 811.5Q654 756 654 687Q654 635 653.0 593.0Q652 551 650 519Q646 455 638 390Q634 356 632.5 330.5Q631 305 631 288Q631 257 676 240Q721 223 787 223Q868 223 931 245Q996 266 1000 300Q1016 446 1023.5 564.5Q1031 683 1031 774Q1031 833 1028.0 887.0Q1025 941 1020 990Q1015 1039 1005.5 1084.5Q996 1130 982 1173Q948 1277 871 1327Q795 1376 704 1376Q639 1376 581 1353Q525 1331 499 1294Q495 1343 444 1366Q394 1388 315 1388Q281 1388 246.0 1385.0Q211 1382 174 1375Q137 1368 109.5 1361.0Q82 1354 62 1346Q43 1339 43 1255Q43 1206 49.0 1157.0Q55 1108 66 1058Q88 958 121 958Q127 958 129 959Q133 960 140.5 961.0Q148 962 160 963Q157 938 154.0 893.0Q151 848 147 784Q143 720 141.5 658.0Q140 596 140 537Q140 312 170 256Q179 239 224 228Q246 223 271.5 220.5Q297 218 325 218Q403 218 465 238Q525 258 525 293V299Q515 358 510.5 461.0Q506 564 506 712Z" /><path id="g-101" d="M19 816Q22 834 28 867Q46 980 76 1077Q106 1174 169 1252Q261 1365 369 1400Q476 1433 546 1433H554Q636 1433 712 1407Q787 1380 845 1331Q922 1266 948 1193Q972 1120 972 1068V1062Q972 1017 966 972Q962 949 957.5 921.5Q953 894 947 862Q944 847 942.0 836.0Q940 825 939 818Q920 706 847 630Q899 609 928 553Q957 497 957 432Q957 411 954 391L927 242Q909 133 811 89Q714 44 582 44Q435 44 303 109Q170 174 88 310Q5 447 5 650Q5 694 8.5 735.0Q12 776 19 816ZM136 466Q177 401 229.0 353.0Q281 305 345 276Q471 216 608 216Q765 216 850 273Q935 328 935 434Q935 507 896 562Q857 617 796 617Q778 617 760 612Q752 609 741.0 604.5Q730 600 717 594Q701 587 686.5 581.0Q672 575 659 571Q632 563 598 563Q531 563 485 603Q437 644 413 711Q488 688 570 688Q671 688 755 725Q840 761 896 844Q950 927 950 1058Q950 1160 896 1241Q841 1322 751 1366Q660 1411 552 1411Q427 1411 315 1347Q202 1283 128 1146Q54 1007 54 799Q54 596 136 466ZM451 1007Q489 1045 533 1045Q570 1045 598 1022Q625 1000 625 963Q625 919 584 899Q544 878 484 878Q435 878 399 890Q412 967 451 1007Z" /><path id="g-104" d="M1028 1316Q1023 1236 1020.5 1146.0Q1018 1056 1018 956Q1018 751 1027.0 585.5Q1036 420 1053 294L1054 284L1027 125Q1020 79 948 56Q878 32 783 32Q725 32 675 41Q624 50 604 66Q603 67 602.5 67.0Q602 67 601 68Q598 69 596 74Q596 78 595 79Q591 102 587.0 147.5Q583 193 581 260Q578 328 576.5 389.5Q575 451 574 507H558Q560 446 563.5 399.0Q567 352 572 317Q573 314 573 306Q573 304 573.0 301.0Q573 298 572 296Q568 274 562.5 242.0Q557 210 549 167Q548 156 546 147Q539 104 478 83Q418 62 336 62Q306 62 278.0 64.5Q250 67 224 72Q173 82 150 99L146 101Q142 104 142 108Q141 109 141 112Q131 157 123 271Q116 383 114 507V534Q114 700 132 818L94 816Q46 816 20 918Q7 969 0.5 1021.0Q-6 1073 -6 1125Q-6 1145 -4.5 1161.5Q-3 1178 -1 1192L25 1341Q34 1389 54 1397Q92 1411 180 1424Q224 1431 266.5 1434.0Q309 1437 349 1437Q515 1437 541 1372Q561 1315 561 1100Q561 1071 560.5 1033.0Q560 995 559 948V935H583Q586 982 589.5 1019.5Q593 1057 597 1085Q601 1114 607.5 1153.5Q614 1193 623 1243Q625 1257 627.5 1268.0Q630 1279 631 1286Q636 1318 642.5 1341.5Q649 1365 656 1381Q663 1397 715 1409Q768 1421 830 1421Q913 1421 971 1397Q1028 1373 1028 1321ZM1005 1322Q1005 1362 954 1381Q902 1399 828 1399Q800 1399 775.0 1397.0Q750 1395 727 1391Q680 1382 676 1372Q656 1322 642.5 1207.0Q629 1092 624 911Q613 912 602.0 912.0Q591 912 580 912Q569 912 558.0 912.0Q547 912 536 911Q537 976 537.5 1027.0Q538 1078 538 1114Q538 1315 520 1364Q501 1415 350 1415Q311 1415 270.0 1412.0Q229 1409 185 1402Q142 1395 111.0 1389.0Q80 1383 62 1376Q42 1368 42 1284Q42 1235 48.0 1186.5Q54 1138 65 1088Q87 988 121 988Q131 988 168 991Q173 992 177.5 992.0Q182 992 185 992Q174 931 168.0 852.0Q162 773 162 675Q162 551 171 432Q178 314 189 266Q211 250 257 243Q304 234 358 234Q437 234 494 252Q550 270 550 306V313Q542 366 538.0 445.0Q534 524 534 630V678Q542 678 553.5 678.0Q565 678 581 679H622Q624 507 630.0 395.0Q636 283 644 233Q664 220 707 212Q729 208 753.0 206.0Q777 204 803 204Q893 204 962 225Q1030 245 1030 284V290Q1022 343 1016.0 414.5Q1010 486 1005 576Q1000 665 997.5 759.5Q995 854 995 952Q995 1051 997.5 1142.5Q1000 1234 1005 1318Z" /><path id="g-103" d="M264 124Q138 206 70 338Q2 471 2 617Q2 650 4.0 681.5Q6 713 10 742Q18 801 34 892L43 943Q68 1084 139 1197Q209 1307 319 1372Q427 1435 562 1435Q684 1435 789 1395Q895 1355 963 1270Q1030 1187 1030 1063Q1030 1053 1029.0 1041.5Q1028 1030 1026 1016L1000 867Q997 854 994.0 844.5Q991 835 989 828L1016 822Q1047 814 1060 780Q1073 745 1073 700Q1073 678 1070 660L1044 510Q1033 455 1004 436L992 373Q976 273 911 198Q847 124 753 83Q659 42 559 42Q389 42 264 124ZM439 794Q410 770 394 733Q396 700 409 663Q423 624 443 604Q448 636 451.5 659.0Q455 682 457 695Q460 710 463.5 728.0Q467 746 471 768Q479 808 501 821Q466 816 439 794ZM790 261Q838 284 876.5 317.5Q915 351 944 394Q1002 479 1002 591V599Q1025 600 1039 631Q1051 660 1051 700Q1051 736 1040 767Q1030 796 1010 800Q988 805 957.0 809.0Q926 813 885 817Q803 823 719 823Q567 823 517 804Q505 800 497 780Q490 762 490 733Q490 685 508 641Q524 598 550 598H666Q642 535 539 535Q463 537 419 597Q372 659 371 743V752Q371 813 391 870Q410 925 450 960Q487 994 541 994Q597 994 632 974Q666 953 669 924Q671 907 712 893Q753 878 805 878Q887 878 948 922Q1007 966 1007 1063Q1007 1179 944 1258Q880 1338 779 1375Q678 1412 562 1412Q424 1412 308 1337Q192 1263 121 1116Q51 972 51 766Q51 626 116 498Q180 372 303 293Q424 214 586 214Q693 214 790 261Z" /><path id="g-90" d="M-1 343Q1 354 3.5 369.5Q6 385 9 404Q25 501 41 546Q54 588 96 644Q116 671 153.0 714.5Q190 758 243 819Q217 818 178 816Q162 815 150.5 814.5Q139 814 133 814Q97 814 75 872Q64 901 56.0 933.5Q48 966 43 1002Q38 1038 35.5 1066.5Q33 1095 33 1117Q33 1137 34.5 1155.0Q36 1173 38 1190L64 1339Q73 1387 93 1395Q127 1408 168.0 1417.0Q209 1426 257 1432Q305 1437 357.0 1440.0Q409 1443 465 1443Q563 1443 654 1434Q700 1430 738.5 1423.5Q777 1417 809 1409Q852 1399 870 1345Q887 1291 887 1220Q887 1161 878 1108Q877 1099 874.5 1086.0Q872 1073 869 1056Q856 973 842 923Q829 874 794 815Q777 786 751.5 751.0Q726 716 691 676Q766 673 816 660Q869 646 882 611Q890 591 896.5 565.5Q903 540 907 511Q916 453 916 395Q916 331 889 190Q887 180 886.0 174.0Q885 168 884 165Q869 77 821 64Q792 56 756.0 49.5Q720 43 679 39Q638 35 593.0 33.0Q548 31 501 31Q440 31 380.0 34.0Q320 37 261 44Q202 51 153.5 59.5Q105 68 67 79Q26 92 9 142Q-8 193 -8 251Q-8 278 -6.5 301.0Q-5 324 -1 343ZM850 1332Q836 1379 804 1387Q770 1395 730.5 1401.5Q691 1408 647 1412Q603 1416 557.5 1418.0Q512 1420 465 1420Q410 1420 358.5 1417.0Q307 1414 258 1409Q209 1403 170.0 1394.0Q131 1385 101 1374Q81 1366 81 1281Q81 1251 84.0 1219.0Q87 1187 92 1152Q103 1080 120 1034Q137 986 159 986Q166 986 173.0 986.0Q180 986 188 987Q253 993 431 996Q422 986 408.5 970.5Q395 955 377 935Q324 876 281.0 828.0Q238 780 206 742Q174 705 148.0 672.5Q122 640 102 613Q66 564 54 517Q41 472 41 400Q41 342 56 301Q71 259 100 250Q137 239 184.5 230.5Q232 222 290 216Q348 209 407.5 206.0Q467 203 528 203Q628 203 706.0 211.0Q784 219 841 235Q867 242 881 287Q894 329 894 394Q894 506 861 603Q842 654 651 654Q623 654 590.0 652.5Q557 651 519 649L526 656Q570 700 606.5 738.0Q643 776 673 808Q702 840 730.0 875.0Q758 910 783 947Q833 1023 851 1091Q864 1137 864 1218Q864 1282 850 1332Z" /><path id="g-89" d="M785 553Q785 550 785.5 544.0Q786 538 787 530Q811 316 811 277V269L785 119Q777 74 707 58Q637 42 559 40Q524 40 491.5 43.0Q459 46 430 51Q401 56 377.5 64.0Q354 72 337 83Q301 106 301 140L302 142Q307 304 332 524Q307 527 294 540Q253 575 230 610Q219 627 205.5 651.0Q192 675 178 706Q160 743 144.5 773.5Q129 804 115 827Q114 828 111 828Q107 828 99 824Q78 814 54 814Q22 814 8 853Q-5 892 -10 952Q-12 976 -13.5 1003.5Q-15 1031 -15 1062Q-15 1164 -6 1212L20 1361Q28 1405 89 1426Q149 1447 248 1447Q289 1447 322.5 1444.0Q356 1441 383 1434Q435 1421 449 1393Q484 1307 554 1082Q590 1245 632 1392Q640 1421 682 1436Q724 1450 785 1450Q877 1450 951 1419Q1026 1388 1026 1330L1024 1305L998 1156Q990 1119 971 1061Q961 1031 945.5 989.5Q930 948 910 895Q828 678 802 583Q798 574 794.0 566.5Q790 559 785 553ZM428 1384Q419 1403 368 1413Q342 1418 312.5 1421.0Q283 1424 249 1424Q168 1424 110 1408Q50 1392 43 1361Q34 1313 34 1211Q34 1165 37.0 1125.0Q40 1085 45 1052Q56 986 78 986Q81 986 85.5 986.5Q90 987 96 988Q120 991 141 991Q158 991 161 987Q175 962 191.0 931.5Q207 901 225 864Q240 834 253.0 811.0Q266 788 276 772Q296 739 335 707Q349 694 383 693Q369 563 361.0 462.0Q353 361 351 290V289Q351 251 418 232Q486 212 575 212Q662 212 726 230Q789 247 789 277V279Q786 320 781.0 374.5Q776 429 768 496Q761 561 757.0 610.5Q753 660 751 692Q797 707 806 739Q820 789 847.5 868.0Q875 947 916 1056Q939 1115 956.0 1161.0Q973 1207 983 1238Q1004 1300 1004 1329Q1004 1375 936 1402Q867 1428 785 1428Q759 1428 737.0 1425.0Q715 1422 696 1417Q659 1405 654 1385Q629 1303 605.0 1204.5Q581 1106 557 992Q481 1252 428 1384Z" /></defs><g transform="scale(0.035156,-0.035156)"><use href="#g-89" x="313" y="-1764" /><use href="#g-101" x="1294" y="-1764" /><use href="#g-90" x="2961" y="-1764" /><use href="#g-104" x="3848" y="-1764" /><use href="#g-101" x="4883" y="-1764" /><use href="#g-110" x="5850" y="-1764" /><use href="#g-103" x="6889" y="-1764" /></g></svg>