<?xml version="1.0" encoding="UTF-8"?>
<svg xmlns="http://www.w3.org/2000/svg" width="580" height="144" viewBox="0 0 290 72" fill="white"><defs><path id="g-110" d="M525 299V293Q525 258 465 238Q403 218 325 218Q297 218 271.5 220.5Q246 223 224 228Q179 239 170 256Q140 312 140 537Q140 596 141.5 658.0Q143 720 147 784Q151 848 154.0 893.0Q157 938 160 963Q148 962 140.5 961.0Q133 960 129 959Q127 958 121 958Q99 958 81 1007Q64 1053 53 1125Q48 1160 45.5 1192.5Q43 1225 43 1255Q43 1339 62 1346Q82 1354 109.5 1361.0Q137 1368 174 1375Q211 1382 246.0 1385.0Q281 1388 315 1388Q394 1388 444 1366Q495 1343 499 1294Q525 1331 581 1353Q639 1376 704 1376Q795 1376 871 1327Q948 1277 982 1173Q996 1130 1005.5 1084.5Q1015 1039 1020 990Q1025 941 1028.0 887.0Q1031 833 1031 774Q1031 683 1023.5 564.5Q1016 446 1000 300Q996 266 931 245Q868 223 787 223Q721 223 676 240Q631 257 631 288Q631 305 632.5 330.5Q634 356 638 390Q646 455 650 519Q652 551 653.0 593.0Q654 635 654 687Q654 756 648.5 811.5Q643 867 632 908Q610 990 566 990Q542 990 525 955Q507 919 507 847L506 712Q506 564 510.5 461.0Q515 358 525 299Z" /><path id="g-101" d="M128 1146Q202 1283 315 1347Q427 1411 552 1411Q660 1411 751 1366Q841 1322 896 1241Q950 1160 950 1058Q950 927 896 844Q840 761 755 725Q671 688 570 688Q488 688 413 711Q437 644 485 603Q531 563 598 563Q632 563 659 571Q672 575 686.5 581.0Q701 587 717 594Q730 600 741.0 604.5Q752 609 760 612Q778 617 796 617Q857 617 896 562Q935 507 935 434Q935 328 850 273Q765 216 608 216Q471 216 345 276Q281 305 229.0 353.0Q177 401 136 466Q54 596 54 799Q54 1007 128 1146ZM484 878Q544 878 584 899Q625 919 625 963Q625 1000 598 1022Q570 1045 533 1045Q489 1045 451 1007Q412 967 399 890Q435 878 484 878Z" /><path id="g-104" d="M995 952Q995 854 997.5 759.5Q1000 665 1005 576Q1010 486 1016.0 414.5Q1022 343 1030 290V284Q1030 245 962 225Q893 204 803 204Q777 204 753.0 206.0Q729 208 707 212Q664 220 644 233Q636 283 630.0 395.0Q624 507 622 679H581Q565 678 553.5 678.0Q542 678 534 678V630Q534 524 538.0 445.0Q542 366 550 313V306Q550 270 494 252Q437 234 358 234Q304 234 257 243Q211 250 189 266Q178 314 171 432Q162 551 162 675Q162 773 168.0 852.0Q174 931 185 992Q182 992 177.5 992.0Q173 992 168 991Q131 988 121 988Q87 988 65 1088Q54 1138 48.0 1186.5Q42 1235 42 1284Q42 1368 62 1376Q80 1383 111.0 1389.0Q142 1395 185 1402Q229 1409 270.0 1412.0Q311 1415 350 1415Q501 1415 520 1364Q538 1315 538 1114Q538 1078 537.5 1027.0Q537 976 536 911Q547 912 558.0 912.0Q569 912 580 912Q591 912 602.0 912.0Q613 912 624 911Q629 1092 642.5 1207.0Q656 1322 676 1372Q680 1382 727 1391Q750 1395 775.0 1397.0Q800 1399 828 1399Q902 1399 954 1381Q1005 1362 1005 1322V1318Q1000 1234 997.5 1142.5Q995 1051 995 952Z" /><path id="g-103" d="M303 293Q180 372 116 498Q51 626 51 766Q51 972 121 1116Q192 1263 308 1337Q424 1412 562 1412Q678 1412 779 1375Q880 1338 944 1258Q1007 1179 1007 1063Q1007 966 948 922Q887 878 805 878Q753 878 712 893Q671 907 669 924Q666 953 632 974Q597 994 541 994Q487 994 450 960Q410 925 391 870Q371 813 371 752V743Q372 659 419 597Q463 537 539 535Q642 535 666 598H550Q524 598 508 641Q490 685 490 733Q490 762 497 780Q505 800 517 804Q567 823 719 823Q803 823 885 817Q926 813 957.0 809.0Q988 805 1010 800Q1030 796 1040 767Q1051 736 1051 700Q1051 660 1039 631Q1025 600 1002 599V591Q1002 479 944 394Q915 351 876.5 317.5Q838 284 790 261Q693 214 586 214Q424 214 303 293Z" /><path id="g-90" d="M851 1091Q833 1023 783 947Q758 910 730.0 875.0Q702 840 673 808Q643 776 606.5 738.0Q570 700 526 656L519 649Q557 651 590.0 652.5Q623 654 651 654Q842 654 861 603Q894 506 894 394Q894 329 881 287Q867 242 841 235Q784 219 706.0 211.0Q628 203 528 203Q467 203 407.5 206.0Q348 209 290 216Q232 222 184.5 230.5Q137 239 100 250Q71 259 56 301Q41 342 41 400Q41 472 54 517Q66 564 102 613Q122 640 148.0 672.5Q174 705 206 742Q238 780 281.0 828.0Q324 876 377 935Q395 955 408.5 970.5Q422 986 431 996Q253 993 188 987Q180 986 173.0 986.0Q166 986 159 986Q137 986 120 1034Q103 1080 92 1152Q87 1187 84.0 1219.0Q81 1251 81 1281Q81 1366 101 1374Q131 1385 170.0 1394.0Q209 1403 258 1409Q307 1414 358.5 1417.0Q410 1420 465 1420Q512 1420 557.5 1418.0Q603 1416 647 1412Q691 1408 730.5 1401.5Q770 1395 804 1387Q836 1379 850 1332Q864 1282 864 1218Q864 1137 851 1091Z" /><path id="g-89" d="M654 1385Q659 1405 696 1417Q715 1422 737.0 1425.0Q759 1428 785 1428Q867 1428 936 1402Q1004 1375 1004 1329Q1004 1300 983 1238Q973 1207 956.0 1161.0Q939 1115 916 1056Q875 947 847.5 868.0Q820 789 806 739Q797 707 751 692Q753 660 757.0 610.5Q761 561 768 496Q776 429 781.0 374.5Q786 320 789 279V277Q789 247 726 230Q662 212 575 212Q486 212 418 232Q351 251 351 289V290Q353 361 361.0 462.0Q369 563 383 693Q349 694 335 707Q296 739 276 772Q266 788 253.0 811.0Q240 834 225 864Q207 901 191.0 931.5Q175 962 161 987Q158 991 141 991Q120 991 96 988Q90 987 85.5 986.5Q81 986 78 986Q56 986 45 1052Q40 1085 37.0 1125.0Q34 1165 34 1211Q34 1313 43 1361Q50 1392 110 1408Q168 1424 249 1424Q283 1424 312.5 1421.0Q342 1418 368 1413Q419 1403 428 1384Q481 1252 557 992Q581 1106 605.0 1204.5Q629 1303 654 1385Z" /></defs><g transform="scale(0.035156,-0.035156)"><use href="#g-89" x="313" y="-1735" /><use href="#g-101" x="1294" y="-1735" /><use href="#g-90" x="2961" y="-1735" /><use href="#g-104" x="3848" y="-1735" /><use href="#g-101" x="4883" y="-1735" /><use href="#g-110" x="5850" y="-1735" /><use href="#g-103" x="6889" y="-1735" /></g></svg>